<svg width="100" height="438" viewBox="0 0 100 438" fill="none" xmlns="http://www.w3.org/2000/svg">
<rect width="100" height="438" fill="#D2C9AC"/>
<path d="M27.36 45.408C27.36 41.824 27.9787 38.5387 29.216 35.552C30.496 32.608 32.2027 30.0907 34.336 28C36.512 25.9093 39.0507 24.288 41.952 23.136C44.896 21.984 48.032 21.408 51.36 21.408C54.8587 21.408 58.0587 22.0267 60.96 23.264C63.904 24.5013 66.4427 26.1867 68.576 28.32C70.7093 30.496 72.3733 33.0347 73.568 35.936C74.7627 38.88 75.36 42.0373 75.36 45.408C75.36 47.584 75.0827 49.6747 74.528 51.68C73.9733 53.728 73.184 55.6267 72.16 57.376C71.1787 59.168 69.9627 60.768 68.512 62.176C67.104 63.6267 65.5253 64.864 63.776 65.888L58.912 58.272C61.344 56.9067 63.264 55.1787 64.672 53.088C66.08 50.9973 66.784 48.4373 66.784 45.408C66.784 43.1893 66.3787 41.1413 65.568 39.264C64.8 37.3867 63.712 35.7653 62.304 34.4C60.9387 33.0347 59.3173 31.968 57.44 31.2C55.5627 30.432 53.536 30.048 51.36 30.048C49.2267 30.048 47.2213 30.432 45.344 31.2C43.5093 31.968 41.888 33.0133 40.48 34.336C39.1147 35.7013 38.0267 37.3013 37.216 39.136C36.448 41.0133 36.064 43.04 36.064 45.216C36.064 48.4587 36.8747 51.1893 38.496 53.408C40.16 55.6693 42.272 57.4187 44.832 58.656L40.672 66.592C38.6667 65.568 36.8533 64.3093 35.232 62.816C33.6107 61.3653 32.2027 59.7227 31.008 57.888C29.856 56.096 28.96 54.1333 28.32 52C27.68 49.9093 27.36 47.712 27.36 45.408ZM28 69.938L74.72 69.938L74.72 84.914C74.72 87.6873 74.3147 90.1407 73.504 92.274C72.736 94.45 71.6267 96.2847 70.176 97.778C68.768 99.2713 67.0613 100.402 65.056 101.17C63.0933 101.981 60.896 102.386 58.464 102.386C55.648 102.386 53.0027 101.703 50.528 100.338C48.096 99.0153 46.1973 97.074 44.832 94.514L28 103.858L28 93.938L42.272 86.45L42.272 78.642L28 78.642L28 69.938ZM50.272 84.146C50.272 85.938 50.4853 87.4313 50.912 88.626C51.3813 89.8633 52 90.8447 52.768 91.57C53.5787 92.338 54.496 92.8713 55.52 93.17C56.544 93.5113 57.632 93.682 58.784 93.682C61.1733 93.682 63.072 92.914 64.48 91.378C65.888 89.8847 66.592 87.474 66.592 84.146L66.592 78.642L50.272 78.642L50.272 84.146ZM74.72 107.313L74.72 135.025L66.4 135.025L66.4 116.017L55.648 116.017L55.648 135.025L47.328 135.025L47.328 116.017L36.32 116.017L36.32 135.025L28 135.025L28 107.313L74.72 107.313ZM74.72 154.788L74.72 163.556L28 180.196L28 171.108L36.32 168.228L36.32 150.116L28 147.236L28 138.148L74.72 154.788ZM44.64 153.06L44.64 165.348L62.368 159.204L44.64 153.06ZM74.72 183.813L74.72 192.453L55.072 206.597L74.72 221.317L74.72 229.573L28 229.573L28 220.869L60.768 220.869L41.44 206.533L60.448 192.517L28 192.517L28 183.813L74.72 183.813Z" fill="#333333"/>
</svg>
