<svg width="100" height="438" viewBox="0 0 100 438" fill="none" xmlns="http://www.w3.org/2000/svg">
<rect width="100" height="438" fill="#ACBCCB"/>
<path d="M27.36 45.664C27.36 41.9947 28 38.6667 29.28 35.68C30.56 32.736 32.288 30.1973 34.464 28.064C36.6827 25.9307 39.2427 24.288 42.144 23.136C45.0453 21.984 48.1173 21.408 51.36 21.408C54.688 21.408 57.8027 22.0053 60.704 23.2C63.648 24.3947 66.1867 26.0373 68.32 28.128C70.496 30.2613 72.2027 32.7787 73.44 35.68C74.72 38.624 75.36 41.824 75.36 45.28C75.36 47.712 75.0613 49.9947 74.464 52.128C73.8667 54.2613 73.0347 56.224 71.968 58.016C70.944 59.8507 69.6853 61.472 68.192 62.88C66.7413 64.3307 65.1413 65.5467 63.392 66.528L58.784 58.848C61.472 57.3973 63.4987 55.5413 64.864 53.28C66.2293 51.0613 66.912 48.416 66.912 45.344C66.912 43.168 66.4853 41.1413 65.632 39.264C64.8213 37.4293 63.712 35.808 62.304 34.4C60.896 33.0347 59.2533 31.968 57.376 31.2C55.4987 30.432 53.4933 30.048 51.36 30.048C49.184 30.048 47.1573 30.432 45.28 31.2C43.4027 31.968 41.76 33.0347 40.352 34.4C38.944 35.808 37.8347 37.472 37.024 39.392C36.2133 41.312 35.808 43.4027 35.808 45.664C35.808 49.1627 36.7253 52.064 38.56 54.368C40.3947 56.7147 42.848 58.3147 45.92 59.168L45.92 44.256L54.24 44.256L54.24 68.512L50.784 68.512C47.6267 68.512 44.6187 67.9787 41.76 66.912C38.944 65.8453 36.4693 64.3093 34.336 62.304C32.2027 60.3413 30.496 57.952 29.216 55.136C27.9787 52.32 27.36 49.1627 27.36 45.664ZM28 72.6255L74.72 72.6255L74.72 87.6015C74.72 90.3748 74.3147 92.8282 73.504 94.9615C72.736 97.1375 71.6267 98.9722 70.176 100.466C68.768 101.959 67.0613 103.09 65.056 103.858C63.0933 104.668 60.896 105.074 58.464 105.074C55.648 105.074 53.0027 104.391 50.528 103.026C48.096 101.703 46.1973 99.7615 44.832 97.2015L28 106.546L28 96.6255L42.272 89.1375L42.272 81.3295L28 81.3295L28 72.6255ZM50.272 86.8335C50.272 88.6255 50.4853 90.1188 50.912 91.3135C51.3813 92.5508 52 93.5322 52.768 94.2575C53.5787 95.0255 54.496 95.5588 55.52 95.8575C56.544 96.1988 57.632 96.3695 58.784 96.3695C61.1733 96.3695 63.072 95.6015 64.48 94.0655C65.888 92.5722 66.592 90.1615 66.592 86.8335L66.592 81.3295L50.272 81.3295L50.272 86.8335ZM74.72 124.913L74.72 133.681L28 150.321L28 141.233L36.32 138.353L36.32 120.241L28 117.361L28 108.273L74.72 124.913ZM44.64 123.185L44.64 135.473L62.368 129.329L44.64 123.185ZM74.72 153.938L74.72 169.938C74.72 172.37 74.272 174.61 73.376 176.658C72.5227 178.706 71.3493 180.477 69.856 181.97C68.3627 183.463 66.592 184.637 64.544 185.49C62.5387 186.343 60.384 186.77 58.08 186.77C55.776 186.77 53.6 186.343 51.552 185.49C49.504 184.637 47.7333 183.463 46.24 181.97C44.7467 180.477 43.552 178.685 42.656 176.594C41.8027 174.546 41.376 172.306 41.376 169.874L41.376 162.642L28 162.642L28 153.938L74.72 153.938ZM66.656 162.642L49.44 162.642L49.44 169.298C49.44 170.578 49.6533 171.751 50.08 172.818C50.5493 173.885 51.168 174.802 51.936 175.57C52.7467 176.338 53.664 176.935 54.688 177.362C55.7547 177.789 56.8853 178.002 58.08 178.002C59.2747 178.002 60.384 177.789 61.408 177.362C62.4747 176.935 63.392 176.338 64.16 175.57C64.928 174.802 65.5253 173.885 65.952 172.818C66.4213 171.751 66.656 170.578 66.656 169.298L66.656 162.642ZM47.264 217.75L47.264 199.83L28 199.83L28 191.126L74.72 191.126L74.72 199.83L55.584 199.83L55.584 217.75L74.72 217.75L74.72 226.454L28 226.454L28 217.75L47.264 217.75ZM74.72 232.133L74.72 240.837L28 240.837L28 232.133L74.72 232.133ZM66.4 258.019L66.4 245.539L74.72 245.539L74.72 279.267L66.4 279.267L66.4 266.723L28 266.723L28 258.019L66.4 258.019ZM74.72 283.626L74.72 311.338L66.4 311.338L66.4 292.33L55.648 292.33L55.648 311.338L47.328 311.338L47.328 292.33L36.32 292.33L36.32 311.338L28 311.338L28 283.626L74.72 283.626Z" fill="#333333"/>
</svg>
