<svg width="100" height="438" viewBox="0 0 100 438" fill="none" xmlns="http://www.w3.org/2000/svg">
<rect width="100" height="438" fill="#CCAFC5"/>
<path d="M74.72 22.688L74.72 31.392L36.32 31.392L36.32 48.48L28 48.48L28 22.688L74.72 22.688ZM74.72 68.4125L74.72 77.1805L28 93.8205L28 84.7325L36.32 81.8525L36.32 63.7405L28 60.8605L28 51.7725L74.72 68.4125ZM44.64 66.6845L44.64 78.9725L62.368 72.8285L44.64 66.6845ZM74.72 87.71L74.72 96.734L41.312 107.806L74.72 118.814L74.72 127.838L28 112.158L28 103.39L74.72 87.71ZM74.72 131.501L74.72 159.213L66.4 159.213L66.4 140.205L55.648 140.205L55.648 159.213L47.328 159.213L47.328 140.205L36.32 140.205L36.32 159.213L28 159.213L28 131.501L74.72 131.501ZM74.72 164.063L74.72 173.919L42.912 194.143L74.72 194.143L74.72 202.847L28 202.847L28 193.567L60.832 172.767L28 172.767L28 164.063L74.72 164.063ZM74.72 208.251L74.72 220.987C74.72 224.912 74.1227 228.411 72.928 231.483C71.7333 234.555 70.0907 237.136 68 239.227C65.9093 241.36 63.4347 242.96 60.576 244.027C57.76 245.136 54.688 245.691 51.36 245.691C48.032 245.691 44.9387 245.093 42.08 243.899C39.2213 242.704 36.7467 241.019 34.656 238.843C32.608 236.709 30.9867 234.149 29.792 231.163C28.5973 228.176 28 224.912 28 221.371L28 208.251L74.72 208.251ZM66.656 216.955L36.064 216.955L36.064 220.347C36.064 222.907 36.448 225.211 37.216 227.259C37.984 229.307 39.0507 231.035 40.416 232.443C41.824 233.893 43.4453 235.003 45.28 235.771C47.1573 236.581 49.184 236.987 51.36 236.987C53.5787 236.987 55.6267 236.624 57.504 235.899C59.3813 235.216 61.0027 234.171 62.368 232.763C63.7333 231.355 64.7787 229.584 65.504 227.451C66.272 225.317 66.656 222.821 66.656 219.963L66.656 216.955ZM74.72 249.751L74.72 277.463L66.4 277.463L66.4 258.455L55.648 258.455L55.648 277.463L47.328 277.463L47.328 258.455L36.32 258.455L36.32 277.463L28 277.463L28 249.751L74.72 249.751ZM28 282.313L74.72 282.313L74.72 297.289C74.72 300.062 74.3147 302.516 73.504 304.649C72.736 306.825 71.6267 308.66 70.176 310.153C68.768 311.646 67.0613 312.777 65.056 313.545C63.0933 314.356 60.896 314.761 58.464 314.761C55.648 314.761 53.0027 314.078 50.528 312.713C48.096 311.39 46.1973 309.449 44.832 306.889L28 316.233L28 306.313L42.272 298.825L42.272 291.017L28 291.017L28 282.313ZM50.272 296.521C50.272 298.313 50.4853 299.806 50.912 301.001C51.3813 302.238 52 303.22 52.768 303.945C53.5787 304.713 54.496 305.246 55.52 305.545C56.544 305.886 57.632 306.057 58.784 306.057C61.1733 306.057 63.072 305.289 64.48 303.753C65.888 302.26 66.592 299.849 66.592 296.521L66.592 291.017L50.272 291.017L50.272 296.521Z" fill="#333333"/>
</svg>
