<svg width="100" height="438" viewBox="0 0 100 438" fill="none" xmlns="http://www.w3.org/2000/svg">
<rect width="100" height="438" fill="#ABCAAE"/>
<path d="M74.72 22.688L74.72 31.328L55.072 45.472L74.72 60.192L74.72 68.448L28 68.448L28 59.744L60.768 59.744L41.44 45.408L60.448 31.392L28 31.392L28 22.688L74.72 22.688ZM74.72 74.0705L74.72 82.7745L28 82.7745L28 74.0705L74.72 74.0705ZM74.72 88.5005L74.72 98.3565L42.912 118.581L74.72 118.581L74.72 127.285L28 127.285L28 118.005L60.832 97.2045L28 97.2045L28 88.5005L74.72 88.5005ZM66.4 144.144L66.4 131.664L74.72 131.664L74.72 165.392L66.4 165.392L66.4 152.848L28 152.848L28 144.144L66.4 144.144Z" fill="#333333"/>
</svg>
